Coordinates
version=1
nRows=8
nColumns=33
inDegrees=yes

Units are S.I. units (second, meters, Newtons, ...)
Angles are in degrees.

endheader
time	ground_thorax_rot_x	ground_thorax_rot_y	ground_thorax_rot_z	ground_thorax_tx	ground_thorax_ty	ground_thorax_tz	clav_prot_r	clav_elev_r	scapula_abduction_r	scapula_elevation_r	scapula_upward_rot_r	scapula_winging_r	shoulder_elv_r	plane_of_elev_r	axial_rot_r	elbow_flexion_r	pro_sup_r	wrist_flex_r	wrist_dev_r	clav_prot_l	clav_elev_l	scapula_abduction_l	scapula_elevation_l	scapula_upward_rot_l	scapula_winging_l	shoulder_elv_l	plane_of_elev_l	axial_rot_l	elbow_flexion_l	pro_sup_l	wrist_flex_l	wrist_dev_l
      7.42000000	    -90.00000000	     90.00000000	    -90.00000000	   -128.86470557	    802.96783829	      5.00972496	     31.12936409	     41.79734508	     45.00000000	     45.00000000	     12.64044371	   3217.24507282	   -260.54225749	     22.62838861	   -163.08272804	    743.51529551	    181.19356495	     10.37393276	      2.41227296	    -45.00000000	      2.02858417	     41.22788912	    -12.65225330	    -45.00000000	  -1330.29073516	   -247.67661628	      8.17110087	   -149.73053087	   2168.85793989	     18.54213545	     12.19776285	    -20.44681228
      7.43000000	    -90.00000000	     90.00000000	    -90.00000000	   -123.95682327	    800.50196399	      4.99264181	     31.34688963	     41.84542621	     45.00000000	     45.00000000	     12.53116064	   3216.88486233	   -260.53986694	     22.47995478	   -163.35158142	    743.39070075	    181.68580990	     10.40433348	      2.24732344	    -45.00000000	      2.23556348	     41.68018706	    -12.84539392	    -45.00000000	  -1330.10504339	   -247.93553686	      8.00510599	   -148.80659226	   2168.62516766	     19.43673474	     12.36360635	    -20.33098739
      7.44000000	    -90.00000000	     90.00000000	    -90.00000000	   -119.09150931	    797.98511322	      5.00964099	     31.56112070	     41.89963988	     45.00000000	     45.00000000	     12.42470984	   3216.51136138	   -260.53025611	     22.34222558	   -163.61923897	    743.26019880	    182.03202114	     10.45031662	      2.06134469	    -45.00000000	      2.47510455	     42.12069842	    -13.06701536	    -45.00000000	  -1329.96168987	   -248.21526481	      7.81181055	   -147.84188818	   2168.38419628	     20.45646545	     12.50402562	    -20.23853713
      7.45000000	    -90.00000000	     90.00000000	    -90.00000000	   -114.29900087	    795.43884220	      5.06666823	     31.78198352	     41.97985495	     45.00000000	     45.00000000	     12.30116264	   3216.16630896	   -260.50192589	     22.25721609	   -163.83722064	    743.25501253	    182.24106696	     10.48465612	      1.85744072	    -45.00000000	      2.73115613	     42.57082830	    -13.45482730	    -45.00000000	  -1329.96423509	   -248.66979352	      7.55666658	   -146.73124144	   2168.05253770	     21.61684546	     12.60217071	    -20.15540770
      7.46000000	    -90.00000000	     90.00000000	    -90.00000000	   -109.61017502	    792.88779776	      5.16847620	     31.96914674	     42.01225811	     45.00000000	     45.00000000	     12.22407526	   3215.74236026	   -260.49756518	     22.09010198	   -164.06564995	    742.99920614	    182.29989528	     10.58397102	      1.65730449	    -45.00000000	      2.97657000	     43.00589997	    -13.52839250	    -45.00000000	  -1329.67457246	   -248.78031031	      7.43436146	   -145.66027723	   2167.80242390	     22.84251469	     12.74892762	    -20.11165023
      7.47000000	    -90.00000000	     90.00000000	    -90.00000000	   -105.05178823	    790.35797682	      5.31618999	     32.16523903	     42.07753509	     45.00000000	     45.00000000	     12.14563846	   3215.37846818	   -260.47052111	     21.96838322	   -164.20086133	    742.90974856	    182.23463887	     10.66180750	      1.45557942	    -45.00000000	      3.22775027	     43.41242557	    -13.80910919	    -45.00000000	  -1329.61089778	   -249.13944527	      7.17008311	   -144.45323108	   2167.44621946	     24.12172151	     12.84720950	    -20.06136203
      7.48000000	    -90.00000000	     90.00000000	    -90.00000000	   -100.65006619	    787.87896994	      5.50741796	     32.35194677	     42.14179189	     45.00000000	     45.00000000	     12.04584699	   3215.00755488	   -260.43830574	     21.87408152	   -164.30337093	    742.83760795	    182.04031791	     10.74982782	      1.24565635	    -45.00000000	      3.49625551	     43.83595875	    -14.11288962	    -45.00000000	  -1329.51924531	   -249.51009840	      6.96089850	   -143.11054895	   2167.00813522	     25.45998663	     12.93828263	    -20.01450442
      7.49000000	    -90.00000000	     90.00000000	    -90.00000000	    -96.42250124	    785.47926582	      5.73630717	     32.51580735	     42.18570463	     45.00000000	     45.00000000	     11.95658200	   3214.63821575	   -260.42848712	     21.76150782	   -164.43786054	    742.66466589	    181.69874514	     10.87360765	      1.03106317	    -45.00000000	      3.77361040	     44.29763785	    -14.33378129	    -45.00000000	  -1329.34074915	   -249.72529394	      6.83676964	   -141.69965457	   2166.62219207	     26.78526772	     13.02234690	    -19.98960141
